<?xml version="1.0" encoding="utf-8"?>

<!DOCTYPE svg PUBLIC "-//W3C//DTD SVG 1.1//EN" "http://www.w3.org/Graphics/SVG/1.1/DTD/svg11.dtd">
<!-- Uploaded to: SVG Repo, www.svgrepo.com, Generator: SVG Repo Mixer Tools -->
<svg height="800px" width="800px" version="1.1" id="_x32_" xmlns="http://www.w3.org/2000/svg" xmlns:xlink="http://www.w3.org/1999/xlink" 
	 viewBox="0 0 512 512"  xml:space="preserve">
<style type="text/css">
	.st0{fill:#000000;}
</style>
<g>
	<path class="st0" d="M450.162,42.936L386.372,2.645c-7.98-5.048-18.545-2.655-23.584,5.334l-30.392,48.106l92.69,58.545
		l30.396-48.106C460.522,58.536,458.142,47.984,450.162,42.936z"/>
	<path class="st0" d="M326.541,65.348c0,0-32.572,5.366-60.864,29.64l152.934,96.614c9.764-35.987,0.62-67.693,0.62-67.693
		L326.541,65.348z"/>
	<polygon class="st0" points="53.874,395.629 238.086,512 258.309,476.128 77.56,361.954 	"/>
	<path class="st0" d="M83.416,352.683l180.753,114.191L412.762,200.88L259.82,104.241L83.416,352.683z M278.695,346.378
		l-92.69-58.57l73.19-115.858l92.694,58.545L278.695,346.378z"/>
</g>
</svg>